<svg width="87" height="34" viewBox="0 0 87 34" fill="none" xmlns="http://www.w3.org/2000/svg">
<g filter="url(#filter0_d_3613_267)">
<rect x="4" y="4" width="79" height="26" rx="13" fill="#ECECEC" shape-rendering="crispEdges"/>
<path d="M18 26C16.8833 26 15.8417 25.7959 14.875 25.3878C13.9083 24.9796 13.0625 24.4204 12.3375 23.7102C11.6125 23 11.0417 22.1714 10.625 21.2245C10.2083 20.2776 10 19.2571 10 18.1633H10.775C10.775 20.1224 11.4792 21.7918 12.8875 23.1714C14.2958 24.551 16 25.2408 18 25.2408C20 25.2408 21.7042 24.551 23.1125 23.1714C24.5208 21.7918 25.225 20.1224 25.225 18.1633C25.225 16.2041 24.5333 14.5347 23.15 13.1551C21.7667 11.7755 20.075 11.0857 18.075 11.0857H17.475L19.25 12.8L18.7 13.3143L16 10.6449L18.725 8L19.275 8.51429L17.425 10.3265H18C19.1167 10.3265 20.1583 10.5306 21.125 10.9388C22.0917 11.3469 22.9375 11.9061 23.6625 12.6163C24.3875 13.3265 24.9583 14.1551 25.375 15.102C25.7917 16.049 26 17.0694 26 18.1633C26 19.2571 25.7917 20.2776 25.375 21.2245C24.9583 22.1714 24.3875 23 23.6625 23.7102C22.9375 24.4204 22.0917 24.9796 21.125 25.3878C20.1583 25.7959 19.1167 26 18 26Z" fill="black"/>
<path d="M39.3281 11.125H43.5703C44.4401 11.125 45.1875 11.2552 45.8125 11.5156C46.4427 11.776 46.9271 12.1615 47.2656 12.6719C47.6042 13.1823 47.7734 13.8099 47.7734 14.5547C47.7734 15.1641 47.6693 15.6875 47.4609 16.125C47.2578 16.5573 46.9688 16.9193 46.5938 17.2109C46.224 17.4974 45.7891 17.7266 45.2891 17.8984L44.5469 18.2891H40.8594L40.8438 16.4609H43.5859C43.9974 16.4609 44.3385 16.388 44.6094 16.2422C44.8802 16.0964 45.0833 15.8932 45.2188 15.6328C45.3594 15.3724 45.4297 15.0703 45.4297 14.7266C45.4297 14.362 45.362 14.0469 45.2266 13.7812C45.0911 13.5156 44.8854 13.3125 44.6094 13.1719C44.3333 13.0312 43.987 12.9609 43.5703 12.9609H41.6719V22.5H39.3281V11.125ZM45.6875 22.5L43.0938 17.4297L45.5703 17.4141L48.1953 22.3906V22.5H45.6875ZM53.3281 22.6562C52.6719 22.6562 52.0833 22.5521 51.5625 22.3438C51.0417 22.1302 50.599 21.8359 50.2344 21.4609C49.875 21.0859 49.599 20.651 49.4062 20.1562C49.2135 19.6562 49.1172 19.125 49.1172 18.5625V18.25C49.1172 17.6094 49.2083 17.0234 49.3906 16.4922C49.5729 15.9609 49.8333 15.5 50.1719 15.1094C50.5156 14.7188 50.9323 14.4193 51.4219 14.2109C51.9115 13.9974 52.4635 13.8906 53.0781 13.8906C53.6771 13.8906 54.2083 13.9896 54.6719 14.1875C55.1354 14.3854 55.5234 14.6667 55.8359 15.0312C56.1536 15.3958 56.3932 15.8333 56.5547 16.3438C56.7161 16.849 56.7969 17.4115 56.7969 18.0312V18.9688H50.0781V17.4688H54.5859V17.2969C54.5859 16.9844 54.5286 16.7057 54.4141 16.4609C54.3047 16.2109 54.138 16.013 53.9141 15.8672C53.6901 15.7214 53.4036 15.6484 53.0547 15.6484C52.7578 15.6484 52.5026 15.7135 52.2891 15.8438C52.0755 15.974 51.901 16.1562 51.7656 16.3906C51.6354 16.625 51.5365 16.901 51.4688 17.2188C51.4062 17.5312 51.375 17.875 51.375 18.25V18.5625C51.375 18.901 51.4219 19.2135 51.5156 19.5C51.6146 19.7865 51.7526 20.0339 51.9297 20.2422C52.112 20.4505 52.3307 20.612 52.5859 20.7266C52.8464 20.8411 53.1406 20.8984 53.4688 20.8984C53.875 20.8984 54.2526 20.8203 54.6016 20.6641C54.9557 20.5026 55.2604 20.2604 55.5156 19.9375L56.6094 21.125C56.4323 21.3802 56.1901 21.625 55.8828 21.8594C55.5807 22.0938 55.2161 22.2865 54.7891 22.4375C54.362 22.5833 53.875 22.6562 53.3281 22.6562ZM62.2188 14.0469V15.6406H57.2969V14.0469H62.2188ZM58.5156 11.9609H60.7656V19.9531C60.7656 20.1979 60.7969 20.3854 60.8594 20.5156C60.9271 20.6458 61.026 20.737 61.1562 20.7891C61.2865 20.8359 61.4505 20.8594 61.6484 20.8594C61.7891 20.8594 61.9141 20.8542 62.0234 20.8438C62.138 20.8281 62.2344 20.8125 62.3125 20.7969L62.3203 22.4531C62.1276 22.5156 61.9193 22.5651 61.6953 22.6016C61.4714 22.638 61.224 22.6562 60.9531 22.6562C60.4583 22.6562 60.026 22.5755 59.6562 22.4141C59.2917 22.2474 59.0104 21.9818 58.8125 21.6172C58.6146 21.2526 58.5156 20.7734 58.5156 20.1797V11.9609ZM65.75 15.8906V22.5H63.5V14.0469H65.6172L65.75 15.8906ZM68.2969 13.9922L68.2578 16.0781C68.1484 16.0625 68.0156 16.0495 67.8594 16.0391C67.7083 16.0234 67.5703 16.0156 67.4453 16.0156C67.1276 16.0156 66.8516 16.0573 66.6172 16.1406C66.388 16.2188 66.1953 16.3359 66.0391 16.4922C65.888 16.6484 65.7734 16.8385 65.6953 17.0625C65.6224 17.2865 65.5807 17.5417 65.5703 17.8281L65.1172 17.6875C65.1172 17.1406 65.1719 16.638 65.2812 16.1797C65.3906 15.7161 65.5495 15.3125 65.7578 14.9688C65.9714 14.625 66.2318 14.3594 66.5391 14.1719C66.8464 13.9844 67.1979 13.8906 67.5938 13.8906C67.7188 13.8906 67.8464 13.901 67.9766 13.9219C68.1068 13.9375 68.2135 13.9609 68.2969 13.9922ZM72.0078 21.5469L74.25 14.0469H76.6641L73.2656 23.7734C73.1927 23.987 73.0938 24.2161 72.9688 24.4609C72.849 24.7057 72.6849 24.9375 72.4766 25.1562C72.2734 25.3802 72.0156 25.5625 71.7031 25.7031C71.3958 25.8438 71.0182 25.9141 70.5703 25.9141C70.3568 25.9141 70.1823 25.901 70.0469 25.875C69.9115 25.849 69.75 25.8125 69.5625 25.7656V24.1172C69.6198 24.1172 69.6797 24.1172 69.7422 24.1172C69.8047 24.1224 69.8646 24.125 69.9219 24.125C70.2188 24.125 70.4609 24.0911 70.6484 24.0234C70.8359 23.9557 70.987 23.8516 71.1016 23.7109C71.2161 23.5755 71.3073 23.3984 71.375 23.1797L72.0078 21.5469ZM71.0703 14.0469L72.9062 20.1719L73.2266 22.5547L71.6953 22.7188L68.6562 14.0469H71.0703Z" fill="black"/>
</g>
<defs>
<filter id="filter0_d_3613_267" x="0" y="0" width="87" height="34" filterUnits="userSpaceOnUse" color-interpolation-filters="sRGB">
<feFlood flood-opacity="0" result="BackgroundImageFix"/>
<feColorMatrix in="SourceAlpha" type="matrix" values="0 0 0 0 0 0 0 0 0 0 0 0 0 0 0 0 0 0 127 0" result="hardAlpha"/>
<feOffset/>
<feGaussianBlur stdDeviation="2"/>
<feComposite in2="hardAlpha" operator="out"/>
<feColorMatrix type="matrix" values="0 0 0 0 0 0 0 0 0 0 0 0 0 0 0 0 0 0 0.25 0"/>
<feBlend mode="normal" in2="BackgroundImageFix" result="effect1_dropShadow_3613_267"/>
<feBlend mode="normal" in="SourceGraphic" in2="effect1_dropShadow_3613_267" result="shape"/>
</filter>
</defs>
</svg>
